# xmcd
#
# Track frame offsets:
#	150
#	13876
#	29778
#	49034
#	69810
#	83692
#	99595
#	117971
#	136604
#	155020
#	169903
#	188301
#	202854
#	218879
#	230274
#	248350
#	268142
#	302945
#
# Disc length: 4054 seconds
#
# Revision: 2
# Processed by: cddbd v1.5.2PL0 Copyright (c) Steve Scherf et al.
# Submitted via: audiograbber 1.83.01
#
DISCID=e90fd412
DTITLE=Various Artist - ESP484-02
DYEAR=2005
DGENRE=Country
TTITLE0=Travis Tritt - The Girl's Gone Wild
TTITLE1=Steve Holy - Put Your Best Dress On
TTITLE2=George Strait - Desperately
TTITLE3=John Michael Montgomery - Letters From Home
TTITLE4=Brooks and Dunn - That's What She Gets For Loving Me
TTITLE5=Rascal Flatts - Feels Like Today
TTITLE6=Kenny Chesney - I Go Back
TTITLE7=Tracy Byrd - Revenge Of A Middle Aged Woman
TTITLE8=Lonestar - Let's Be Us Again
TTITLE9=Tracy Lawrence - It's All How You Look At It
TTITLE10=Trent Wilmon - Dixie Rose Deluxe's Honky Tonk
TTITLE11=Montgomery Gentry - If You Ever Stop Loving Me
TTITLE12=Alan Jackson - Monday Morning Church
TTITLE13=Joe Nichols - What's A Guy Gotta Do
TTITLE14=Josh Gracin - I Want To Live
TTITLE15=Keith Urban - You're My Better Half
TTITLE16=Tim McGraw - Live Like You Were Dying
TTITLE17=data - data
EXTD=
EXTT0=
EXTT1=
EXTT2=
EXTT3=
EXTT4=
EXTT5=
EXTT6=
EXTT7=
EXTT8=
EXTT9=
EXTT10=
EXTT11=
EXTT12=
EXTT13=
EXTT14=
EXTT15=
EXTT16=
EXTT17=
PLAYORDER=
